<mxfile host="app.diagrams.net" modified="2024-03-27T14:48:02.680Z" agent="Mozilla/5.0 (Windows NT 10.0; Win64; x64) AppleWebKit/537.36 (KHTML, like Gecko) Chrome/123.0.0.0 Safari/537.36" etag="u1EPw-5Vma1S0UkXeqRc" version="24.2.0" type="device">
  <diagram name="Page-1" id="u1dAmHHz-08csS4rkd8T">
    <mxGraphModel dx="915" dy="653" grid="1" gridSize="10" guides="1" tooltips="1" connect="1" arrows="1" fold="1" page="1" pageScale="1" pageWidth="850" pageHeight="1100" math="0" shadow="0">
      <root>
        <mxCell id="0" />
        <mxCell id="1" parent="0" />
        <mxCell id="FSEUlDa0YmA1OjBxsHYK-1" value="" style="shape=umlActor;verticalLabelPosition=bottom;verticalAlign=top;html=1;outlineConnect=0;" vertex="1" parent="1">
          <mxGeometry x="410" y="370" width="30" height="60" as="geometry" />
        </mxCell>
        <mxCell id="FSEUlDa0YmA1OjBxsHYK-12" style="edgeStyle=orthogonalEdgeStyle;rounded=0;orthogonalLoop=1;jettySize=auto;html=1;" edge="1" parent="1" source="FSEUlDa0YmA1OjBxsHYK-2" target="FSEUlDa0YmA1OjBxsHYK-11">
          <mxGeometry relative="1" as="geometry">
            <Array as="points">
              <mxPoint x="670" y="390" />
              <mxPoint x="670" y="390" />
            </Array>
          </mxGeometry>
        </mxCell>
        <mxCell id="FSEUlDa0YmA1OjBxsHYK-2" value="" style="fontColor=#0066CC;verticalAlign=top;verticalLabelPosition=bottom;labelPosition=center;align=center;html=1;outlineConnect=0;fillColor=#CCCCCC;strokeColor=#6881B3;gradientColor=none;gradientDirection=north;strokeWidth=2;shape=mxgraph.networks.pc;" vertex="1" parent="1">
          <mxGeometry x="500" y="365" width="100" height="70" as="geometry" />
        </mxCell>
        <mxCell id="FSEUlDa0YmA1OjBxsHYK-6" value="DB" style="shape=cylinder3;whiteSpace=wrap;html=1;boundedLbl=1;backgroundOutline=1;size=15;" vertex="1" parent="1">
          <mxGeometry x="920" y="360" width="60" height="80" as="geometry" />
        </mxCell>
        <mxCell id="FSEUlDa0YmA1OjBxsHYK-14" style="edgeStyle=orthogonalEdgeStyle;rounded=0;orthogonalLoop=1;jettySize=auto;html=1;" edge="1" parent="1" source="FSEUlDa0YmA1OjBxsHYK-11" target="FSEUlDa0YmA1OjBxsHYK-2">
          <mxGeometry relative="1" as="geometry" />
        </mxCell>
        <mxCell id="FSEUlDa0YmA1OjBxsHYK-11" value="Server" style="ellipse;shape=cloud;whiteSpace=wrap;html=1;" vertex="1" parent="1">
          <mxGeometry x="680" y="360" width="120" height="80" as="geometry" />
        </mxCell>
        <mxCell id="FSEUlDa0YmA1OjBxsHYK-22" style="edgeStyle=orthogonalEdgeStyle;rounded=0;orthogonalLoop=1;jettySize=auto;html=1;entryX=0;entryY=0.5;entryDx=0;entryDy=0;entryPerimeter=0;" edge="1" parent="1" source="FSEUlDa0YmA1OjBxsHYK-1" target="FSEUlDa0YmA1OjBxsHYK-2">
          <mxGeometry relative="1" as="geometry" />
        </mxCell>
        <mxCell id="FSEUlDa0YmA1OjBxsHYK-42" style="edgeStyle=orthogonalEdgeStyle;rounded=0;orthogonalLoop=1;jettySize=auto;html=1;" edge="1" parent="1" source="FSEUlDa0YmA1OjBxsHYK-23" target="FSEUlDa0YmA1OjBxsHYK-2">
          <mxGeometry relative="1" as="geometry" />
        </mxCell>
        <mxCell id="FSEUlDa0YmA1OjBxsHYK-49" value="Get Images" style="edgeLabel;html=1;align=center;verticalAlign=middle;resizable=0;points=[];" vertex="1" connectable="0" parent="FSEUlDa0YmA1OjBxsHYK-42">
          <mxGeometry x="-0.5035" relative="1" as="geometry">
            <mxPoint as="offset" />
          </mxGeometry>
        </mxCell>
        <mxCell id="FSEUlDa0YmA1OjBxsHYK-23" value="Cloudinary" style="ellipse;shape=cloud;whiteSpace=wrap;html=1;" vertex="1" parent="1">
          <mxGeometry x="680" y="220" width="120" height="80" as="geometry" />
        </mxCell>
        <mxCell id="FSEUlDa0YmA1OjBxsHYK-33" style="edgeStyle=orthogonalEdgeStyle;rounded=0;orthogonalLoop=1;jettySize=auto;html=1;" edge="1" parent="1" source="FSEUlDa0YmA1OjBxsHYK-24" target="FSEUlDa0YmA1OjBxsHYK-31">
          <mxGeometry relative="1" as="geometry" />
        </mxCell>
        <mxCell id="FSEUlDa0YmA1OjBxsHYK-24" value="Twillio" style="ellipse;shape=cloud;whiteSpace=wrap;html=1;" vertex="1" parent="1">
          <mxGeometry x="680" y="500" width="120" height="80" as="geometry" />
        </mxCell>
        <mxCell id="FSEUlDa0YmA1OjBxsHYK-30" style="edgeStyle=elbowEdgeStyle;rounded=0;orthogonalLoop=1;jettySize=auto;html=1;entryX=0.625;entryY=0.2;entryDx=0;entryDy=0;entryPerimeter=0;" edge="1" parent="1" source="FSEUlDa0YmA1OjBxsHYK-11" target="FSEUlDa0YmA1OjBxsHYK-24">
          <mxGeometry relative="1" as="geometry" />
        </mxCell>
        <mxCell id="FSEUlDa0YmA1OjBxsHYK-46" value="OTP" style="edgeLabel;html=1;align=center;verticalAlign=middle;resizable=0;points=[];" vertex="1" connectable="0" parent="FSEUlDa0YmA1OjBxsHYK-30">
          <mxGeometry x="-0.4408" y="-1" relative="1" as="geometry">
            <mxPoint as="offset" />
          </mxGeometry>
        </mxCell>
        <mxCell id="FSEUlDa0YmA1OjBxsHYK-36" style="edgeStyle=orthogonalEdgeStyle;rounded=0;orthogonalLoop=1;jettySize=auto;html=1;" edge="1" parent="1" source="FSEUlDa0YmA1OjBxsHYK-31" target="FSEUlDa0YmA1OjBxsHYK-1">
          <mxGeometry relative="1" as="geometry" />
        </mxCell>
        <mxCell id="FSEUlDa0YmA1OjBxsHYK-31" value="" style="html=1;verticalLabelPosition=bottom;labelBackgroundColor=#ffffff;verticalAlign=top;shadow=0;dashed=0;strokeWidth=1;shape=mxgraph.ios7.misc.iphone;strokeColor=#c0c0c0;" vertex="1" parent="1">
          <mxGeometry x="527.5" y="495" width="45" height="90" as="geometry" />
        </mxCell>
        <mxCell id="FSEUlDa0YmA1OjBxsHYK-43" style="edgeStyle=orthogonalEdgeStyle;rounded=0;orthogonalLoop=1;jettySize=auto;html=1;entryX=0.503;entryY=0.977;entryDx=0;entryDy=0;entryPerimeter=0;" edge="1" parent="1" source="FSEUlDa0YmA1OjBxsHYK-11" target="FSEUlDa0YmA1OjBxsHYK-23">
          <mxGeometry relative="1" as="geometry" />
        </mxCell>
        <mxCell id="FSEUlDa0YmA1OjBxsHYK-48" value="Upload Images" style="edgeLabel;html=1;align=center;verticalAlign=middle;resizable=0;points=[];" vertex="1" connectable="0" parent="FSEUlDa0YmA1OjBxsHYK-43">
          <mxGeometry x="-0.1273" y="3" relative="1" as="geometry">
            <mxPoint x="1" y="1" as="offset" />
          </mxGeometry>
        </mxCell>
        <mxCell id="FSEUlDa0YmA1OjBxsHYK-44" style="edgeStyle=orthogonalEdgeStyle;rounded=0;orthogonalLoop=1;jettySize=auto;html=1;entryX=0;entryY=0.5;entryDx=0;entryDy=0;entryPerimeter=0;" edge="1" parent="1" source="FSEUlDa0YmA1OjBxsHYK-11" target="FSEUlDa0YmA1OjBxsHYK-6">
          <mxGeometry relative="1" as="geometry" />
        </mxCell>
        <mxCell id="FSEUlDa0YmA1OjBxsHYK-45" style="edgeStyle=orthogonalEdgeStyle;rounded=0;orthogonalLoop=1;jettySize=auto;html=1;exitX=0;exitY=0;exitDx=0;exitDy=52.5;exitPerimeter=0;entryX=0.96;entryY=0.7;entryDx=0;entryDy=0;entryPerimeter=0;" edge="1" parent="1" source="FSEUlDa0YmA1OjBxsHYK-6" target="FSEUlDa0YmA1OjBxsHYK-11">
          <mxGeometry relative="1" as="geometry" />
        </mxCell>
      </root>
    </mxGraphModel>
  </diagram>
</mxfile>
